<mxfile host="app.diagrams.net" agent="Mozilla/5.0 (Windows NT 10.0; Win64; x64) AppleWebKit/537.36 (KHTML, like Gecko) Chrome/140.0.0.0 Safari/537.36 Edg/140.0.0.0" version="28.2.5">
  <diagram name="UseCase" id="Lpp4saTkHtJzFjESgAgC">
    <mxGraphModel grid="1" page="1" gridSize="10" guides="1" tooltips="1" connect="1" arrows="1" fold="1" pageScale="1" pageWidth="850" pageHeight="1100" math="0" shadow="0">
      <root>
        <mxCell id="0" />
        <mxCell id="1" parent="0" />
        <mxCell id="vLiRIz-cvGZn9MA9HLF_-4" value="" style="shape=parallelogram;html=1;strokeWidth=2;perimeter=parallelogramPerimeter;whiteSpace=wrap;rounded=1;arcSize=12;size=0.23;" vertex="1" parent="1">
          <mxGeometry x="300" width="105" height="60" as="geometry" />
        </mxCell>
        <mxCell id="vLiRIz-cvGZn9MA9HLF_-5" value="&lt;font style=&quot;font-size: 18px;&quot;&gt;client&lt;/font&gt;" style="text;strokeColor=none;fillColor=none;html=1;fontSize=24;fontStyle=1;verticalAlign=middle;align=center;" vertex="1" parent="1">
          <mxGeometry x="305" width="100" height="40" as="geometry" />
        </mxCell>
        <mxCell id="vLiRIz-cvGZn9MA9HLF_-7" value="" style="rounded=1;whiteSpace=wrap;html=1;" vertex="1" parent="1">
          <mxGeometry x="285" y="100" width="120" height="60" as="geometry" />
        </mxCell>
        <mxCell id="vLiRIz-cvGZn9MA9HLF_-8" value="&lt;font style=&quot;font-size: 18px;&quot;&gt;view services&lt;/font&gt;" style="text;strokeColor=none;fillColor=none;html=1;fontSize=24;fontStyle=1;verticalAlign=middle;align=center;" vertex="1" parent="1">
          <mxGeometry x="295" y="110" width="100" height="40" as="geometry" />
        </mxCell>
        <mxCell id="vLiRIz-cvGZn9MA9HLF_-9" value="" style="rounded=1;whiteSpace=wrap;html=1;" vertex="1" parent="1">
          <mxGeometry x="285" y="200" width="120" height="60" as="geometry" />
        </mxCell>
        <mxCell id="vLiRIz-cvGZn9MA9HLF_-10" value="&lt;font style=&quot;font-size: 18px;&quot;&gt;select service&lt;/font&gt;" style="text;strokeColor=none;fillColor=none;html=1;fontSize=24;fontStyle=1;verticalAlign=middle;align=center;" vertex="1" parent="1">
          <mxGeometry x="295" y="210" width="100" height="40" as="geometry" />
        </mxCell>
        <mxCell id="vLiRIz-cvGZn9MA9HLF_-38" style="edgeStyle=orthogonalEdgeStyle;rounded=0;orthogonalLoop=1;jettySize=auto;html=1;entryX=0.5;entryY=0;entryDx=0;entryDy=0;" edge="1" parent="1" source="vLiRIz-cvGZn9MA9HLF_-11" target="vLiRIz-cvGZn9MA9HLF_-13">
          <mxGeometry relative="1" as="geometry">
            <Array as="points">
              <mxPoint x="340" y="390" />
              <mxPoint x="340" y="390" />
            </Array>
          </mxGeometry>
        </mxCell>
        <mxCell id="vLiRIz-cvGZn9MA9HLF_-11" value="" style="rounded=1;whiteSpace=wrap;html=1;" vertex="1" parent="1">
          <mxGeometry x="235" y="310" width="220" height="60" as="geometry" />
        </mxCell>
        <mxCell id="vLiRIz-cvGZn9MA9HLF_-12" value="&lt;font style=&quot;font-size: 18px;&quot;&gt;select stylist(optional)&lt;/font&gt;" style="text;strokeColor=none;fillColor=none;html=1;fontSize=24;fontStyle=1;verticalAlign=middle;align=center;" vertex="1" parent="1">
          <mxGeometry x="295" y="325" width="100" height="30" as="geometry" />
        </mxCell>
        <mxCell id="vLiRIz-cvGZn9MA9HLF_-40" value="" style="edgeStyle=orthogonalEdgeStyle;rounded=0;orthogonalLoop=1;jettySize=auto;html=1;" edge="1" parent="1" source="vLiRIz-cvGZn9MA9HLF_-13" target="vLiRIz-cvGZn9MA9HLF_-16">
          <mxGeometry relative="1" as="geometry" />
        </mxCell>
        <mxCell id="vLiRIz-cvGZn9MA9HLF_-13" value="" style="rounded=1;whiteSpace=wrap;html=1;" vertex="1" parent="1">
          <mxGeometry x="245" y="440" width="190" height="60" as="geometry" />
        </mxCell>
        <mxCell id="vLiRIz-cvGZn9MA9HLF_-14" value="&lt;font style=&quot;font-size: 18px;&quot;&gt;select date and time&lt;/font&gt;" style="text;strokeColor=none;fillColor=none;html=1;fontSize=24;fontStyle=1;verticalAlign=middle;align=center;" vertex="1" parent="1">
          <mxGeometry x="290" y="450" width="100" height="40" as="geometry" />
        </mxCell>
        <mxCell id="vLiRIz-cvGZn9MA9HLF_-15" value="" style="rhombus;whiteSpace=wrap;html=1;" vertex="1" parent="1">
          <mxGeometry x="240" y="530" width="200" height="100" as="geometry" />
        </mxCell>
        <mxCell id="vLiRIz-cvGZn9MA9HLF_-16" value="&lt;font style=&quot;font-size: 18px;&quot;&gt;logged in?&lt;/font&gt;" style="text;strokeColor=none;fillColor=none;html=1;fontSize=24;fontStyle=1;verticalAlign=middle;align=center;" vertex="1" parent="1">
          <mxGeometry x="290" y="560" width="100" height="40" as="geometry" />
        </mxCell>
        <mxCell id="vLiRIz-cvGZn9MA9HLF_-17" value="" style="rounded=1;whiteSpace=wrap;html=1;" vertex="1" parent="1">
          <mxGeometry x="20" y="640" width="190" height="60" as="geometry" />
        </mxCell>
        <mxCell id="vLiRIz-cvGZn9MA9HLF_-18" value="&lt;font style=&quot;font-size: 18px;&quot;&gt;confirm booking&lt;/font&gt;" style="text;strokeColor=none;fillColor=none;html=1;fontSize=24;fontStyle=1;verticalAlign=middle;align=center;" vertex="1" parent="1">
          <mxGeometry x="65" y="650" width="100" height="40" as="geometry" />
        </mxCell>
        <mxCell id="vLiRIz-cvGZn9MA9HLF_-19" value="" style="rounded=1;whiteSpace=wrap;html=1;" vertex="1" parent="1">
          <mxGeometry x="540" y="740" width="190" height="60" as="geometry" />
        </mxCell>
        <mxCell id="vLiRIz-cvGZn9MA9HLF_-20" value="&lt;font style=&quot;font-size: 18px;&quot;&gt;confirm booking&lt;/font&gt;" style="text;strokeColor=none;fillColor=none;html=1;fontSize=24;fontStyle=1;verticalAlign=middle;align=center;" vertex="1" parent="1">
          <mxGeometry x="585" y="750" width="100" height="40" as="geometry" />
        </mxCell>
        <mxCell id="vLiRIz-cvGZn9MA9HLF_-61" style="edgeStyle=orthogonalEdgeStyle;rounded=0;orthogonalLoop=1;jettySize=auto;html=1;entryX=0;entryY=0.5;entryDx=0;entryDy=0;" edge="1" parent="1" source="vLiRIz-cvGZn9MA9HLF_-21" target="vLiRIz-cvGZn9MA9HLF_-27">
          <mxGeometry relative="1" as="geometry">
            <mxPoint x="100" y="940" as="targetPoint" />
            <Array as="points">
              <mxPoint x="115" y="1025" />
            </Array>
          </mxGeometry>
        </mxCell>
        <mxCell id="vLiRIz-cvGZn9MA9HLF_-21" value="" style="rounded=1;whiteSpace=wrap;html=1;" vertex="1" parent="1">
          <mxGeometry x="20" y="740" width="190" height="60" as="geometry" />
        </mxCell>
        <mxCell id="vLiRIz-cvGZn9MA9HLF_-22" value="&lt;font style=&quot;font-size: 18px;&quot;&gt;send confirmation&lt;/font&gt;" style="text;strokeColor=none;fillColor=none;html=1;fontSize=24;fontStyle=1;verticalAlign=middle;align=center;" vertex="1" parent="1">
          <mxGeometry x="65" y="750" width="100" height="40" as="geometry" />
        </mxCell>
        <mxCell id="vLiRIz-cvGZn9MA9HLF_-23" value="" style="rounded=1;whiteSpace=wrap;html=1;" vertex="1" parent="1">
          <mxGeometry x="530" y="640" width="190" height="60" as="geometry" />
        </mxCell>
        <mxCell id="vLiRIz-cvGZn9MA9HLF_-24" value="&lt;font style=&quot;font-size: 18px;&quot;&gt;register/login&lt;/font&gt;" style="text;strokeColor=none;fillColor=none;html=1;fontSize=24;fontStyle=1;verticalAlign=middle;align=center;" vertex="1" parent="1">
          <mxGeometry x="575" y="650" width="100" height="40" as="geometry" />
        </mxCell>
        <mxCell id="vLiRIz-cvGZn9MA9HLF_-62" style="edgeStyle=orthogonalEdgeStyle;rounded=0;orthogonalLoop=1;jettySize=auto;html=1;entryX=1;entryY=0.5;entryDx=0;entryDy=0;" edge="1" parent="1" source="vLiRIz-cvGZn9MA9HLF_-25" target="vLiRIz-cvGZn9MA9HLF_-27">
          <mxGeometry relative="1" as="geometry">
            <Array as="points">
              <mxPoint x="635" y="1025" />
            </Array>
          </mxGeometry>
        </mxCell>
        <mxCell id="vLiRIz-cvGZn9MA9HLF_-25" value="" style="rounded=1;whiteSpace=wrap;html=1;" vertex="1" parent="1">
          <mxGeometry x="540" y="840" width="190" height="60" as="geometry" />
        </mxCell>
        <mxCell id="vLiRIz-cvGZn9MA9HLF_-26" value="&lt;font style=&quot;font-size: 18px;&quot;&gt;send confirmation&lt;/font&gt;" style="text;strokeColor=none;fillColor=none;html=1;fontSize=24;fontStyle=1;verticalAlign=middle;align=center;" vertex="1" parent="1">
          <mxGeometry x="585" y="850" width="100" height="40" as="geometry" />
        </mxCell>
        <mxCell id="vLiRIz-cvGZn9MA9HLF_-27" value="" style="ellipse;html=1;shape=endState;fillColor=#000000;strokeColor=#ff0000;" vertex="1" parent="1">
          <mxGeometry x="337.5" y="1010" width="30" height="30" as="geometry" />
        </mxCell>
        <mxCell id="vLiRIz-cvGZn9MA9HLF_-35" value="" style="endArrow=classic;html=1;rounded=0;entryX=0.44;entryY=0.046;entryDx=0;entryDy=0;entryPerimeter=0;" edge="1" parent="1" target="vLiRIz-cvGZn9MA9HLF_-9">
          <mxGeometry width="50" height="50" relative="1" as="geometry">
            <mxPoint x="338" y="160" as="sourcePoint" />
            <mxPoint x="570" y="98.07999999999993" as="targetPoint" />
          </mxGeometry>
        </mxCell>
        <mxCell id="vLiRIz-cvGZn9MA9HLF_-32" value="" style="endArrow=classic;html=1;rounded=0;exitX=0.34;exitY=0.997;exitDx=0;exitDy=0;exitPerimeter=0;entryX=0.44;entryY=-0.023;entryDx=0;entryDy=0;entryPerimeter=0;" edge="1" parent="1" source="vLiRIz-cvGZn9MA9HLF_-4" target="vLiRIz-cvGZn9MA9HLF_-7">
          <mxGeometry width="50" height="50" relative="1" as="geometry">
            <mxPoint x="570" y="110" as="sourcePoint" />
            <mxPoint x="570" y="150" as="targetPoint" />
            <Array as="points" />
          </mxGeometry>
        </mxCell>
        <mxCell id="vLiRIz-cvGZn9MA9HLF_-36" value="" style="endArrow=classic;html=1;rounded=0;entryX=0.457;entryY=0.056;entryDx=0;entryDy=0;entryPerimeter=0;" edge="1" parent="1" target="vLiRIz-cvGZn9MA9HLF_-11">
          <mxGeometry width="50" height="50" relative="1" as="geometry">
            <mxPoint x="336" y="260" as="sourcePoint" />
            <mxPoint x="570" y="260" as="targetPoint" />
            <Array as="points">
              <mxPoint x="336" y="290" />
            </Array>
          </mxGeometry>
        </mxCell>
        <mxCell id="vLiRIz-cvGZn9MA9HLF_-41" style="edgeStyle=orthogonalEdgeStyle;rounded=0;orthogonalLoop=1;jettySize=auto;html=1;entryX=0.577;entryY=0.085;entryDx=0;entryDy=0;entryPerimeter=0;" edge="1" parent="1" source="vLiRIz-cvGZn9MA9HLF_-15" target="vLiRIz-cvGZn9MA9HLF_-23">
          <mxGeometry relative="1" as="geometry" />
        </mxCell>
        <mxCell id="vLiRIz-cvGZn9MA9HLF_-49" style="edgeStyle=orthogonalEdgeStyle;rounded=0;orthogonalLoop=1;jettySize=auto;html=1;entryX=0.459;entryY=-0.013;entryDx=0;entryDy=0;entryPerimeter=0;exitX=0.459;exitY=0.948;exitDx=0;exitDy=0;exitPerimeter=0;" edge="1" parent="1" source="vLiRIz-cvGZn9MA9HLF_-17" target="vLiRIz-cvGZn9MA9HLF_-21">
          <mxGeometry relative="1" as="geometry" />
        </mxCell>
        <mxCell id="vLiRIz-cvGZn9MA9HLF_-50" style="edgeStyle=orthogonalEdgeStyle;rounded=0;orthogonalLoop=1;jettySize=auto;html=1;entryX=0.453;entryY=0.085;entryDx=0;entryDy=0;entryPerimeter=0;" edge="1" parent="1" source="vLiRIz-cvGZn9MA9HLF_-15" target="vLiRIz-cvGZn9MA9HLF_-17">
          <mxGeometry relative="1" as="geometry" />
        </mxCell>
        <mxCell id="vLiRIz-cvGZn9MA9HLF_-51" style="edgeStyle=orthogonalEdgeStyle;rounded=0;orthogonalLoop=1;jettySize=auto;html=1;entryX=0.552;entryY=0.066;entryDx=0;entryDy=0;entryPerimeter=0;exitX=0.598;exitY=1.007;exitDx=0;exitDy=0;exitPerimeter=0;" edge="1" parent="1" source="vLiRIz-cvGZn9MA9HLF_-23" target="vLiRIz-cvGZn9MA9HLF_-19">
          <mxGeometry relative="1" as="geometry">
            <mxPoint x="625" y="700" as="sourcePoint" />
            <Array as="points">
              <mxPoint x="645" y="700" />
            </Array>
          </mxGeometry>
        </mxCell>
        <mxCell id="vLiRIz-cvGZn9MA9HLF_-55" style="edgeStyle=orthogonalEdgeStyle;rounded=0;orthogonalLoop=1;jettySize=auto;html=1;entryX=0.577;entryY=0.007;entryDx=0;entryDy=0;entryPerimeter=0;exitX=0.602;exitY=1.046;exitDx=0;exitDy=0;exitPerimeter=0;" edge="1" parent="1" source="vLiRIz-cvGZn9MA9HLF_-19" target="vLiRIz-cvGZn9MA9HLF_-25">
          <mxGeometry relative="1" as="geometry" />
        </mxCell>
        <mxCell id="vLiRIz-cvGZn9MA9HLF_-56" value="" style="ellipse;html=1;shape=startState;fillColor=#000000;strokeColor=#ff0000;" vertex="1" parent="1">
          <mxGeometry x="330" y="-90" width="30" height="30" as="geometry" />
        </mxCell>
        <mxCell id="vLiRIz-cvGZn9MA9HLF_-57" value="" style="edgeStyle=orthogonalEdgeStyle;html=1;verticalAlign=bottom;endArrow=open;endSize=8;strokeColor=#ff0000;rounded=0;" edge="1" parent="1" source="vLiRIz-cvGZn9MA9HLF_-56">
          <mxGeometry relative="1" as="geometry">
            <mxPoint x="345" as="targetPoint" />
          </mxGeometry>
        </mxCell>
        <mxCell id="vLiRIz-cvGZn9MA9HLF_-63" value="YES" style="text;html=1;align=center;verticalAlign=middle;whiteSpace=wrap;rounded=0;" vertex="1" parent="1">
          <mxGeometry x="140" y="540" width="60" height="30" as="geometry" />
        </mxCell>
        <mxCell id="vLiRIz-cvGZn9MA9HLF_-64" value="NO" style="text;html=1;align=center;verticalAlign=middle;whiteSpace=wrap;rounded=0;" vertex="1" parent="1">
          <mxGeometry x="470" y="540" width="60" height="30" as="geometry" />
        </mxCell>
      </root>
    </mxGraphModel>
  </diagram>
</mxfile>
